<?xml version="1.0" encoding="UTF-8"?>
<svg width="168px" height="16px" viewBox="0 0 168 16" version="1.1" xmlns="http://www.w3.org/2000/svg" xmlns:xlink="http://www.w3.org/1999/xlink">
    <!-- Generator: Sketch 52.2 (67145) - http://www.bohemiancoding.com/sketch -->
    <title>wave</title>
    <desc>Created with Sketch.</desc>
    <g id="Page-1" stroke="none" stroke-width="1" fill="none" fill-rule="evenodd">
        <g id="Artboard-1" transform="translate(-486.000000, -1228.000000)" fill="#444561">
            <g id="Who-we-Are" transform="translate(120.000000, 1170.000000)">
                <g id="wave" transform="translate(366.000000, 58.000000)">
                    <rect id="Rectangle-4" transform="translate(7.703057, 8.000000) rotate(45.000000) translate(-7.703057, -8.000000) " x="5.50218341" y="-0.761904762" width="4.40174672" height="17.5238095"></rect>
                    <rect id="Rectangle-4" transform="translate(25.676856, 8.000000) rotate(45.000000) translate(-25.676856, -8.000000) " x="23.4759825" y="-0.761904762" width="4.40174672" height="17.5238095"></rect>
                    <rect id="Rectangle-4" transform="translate(16.506550, 8.000000) rotate(-45.000000) translate(-16.506550, -8.000000) " x="14.3056769" y="-0.761904762" width="4.40174672" height="17.5238095"></rect>
                    <rect id="Rectangle-4" transform="translate(34.480349, 8.000000) rotate(-45.000000) translate(-34.480349, -8.000000) " x="32.279476" y="-0.761904762" width="4.40174672" height="17.5238095"></rect>
                    <rect id="Rectangle-6" transform="translate(43.650655, 8.000000) rotate(45.000000) translate(-43.650655, -8.000000) " x="41.4497817" y="-0.761904762" width="4.40174672" height="17.5238095"></rect>
                    <rect id="Rectangle-5" transform="translate(52.454148, 8.000000) rotate(-45.000000) translate(-52.454148, -8.000000) " x="50.2532751" y="-0.761904762" width="4.40174672" height="17.5238095"></rect>
                    <rect id="Rectangle-8" transform="translate(61.624454, 8.000000) rotate(45.000000) translate(-61.624454, -8.000000) " x="59.4235808" y="-0.761904762" width="4.40174672" height="17.5238095"></rect>
                    <rect id="Rectangle-7" transform="translate(70.427948, 8.000000) rotate(-45.000000) translate(-70.427948, -8.000000) " x="68.2270742" y="-0.761904762" width="4.40174672" height="17.5238095"></rect>
                    <rect id="Rectangle-10" transform="translate(79.598253, 8.000000) rotate(45.000000) translate(-79.598253, -8.000000) " x="77.3973799" y="-0.761904762" width="4.40174672" height="17.5238095"></rect>
                    <rect id="Rectangle-9" transform="translate(88.401747, 8.000000) rotate(-45.000000) translate(-88.401747, -8.000000) " x="86.2008734" y="-0.761904762" width="4.40174672" height="17.5238095"></rect>
                    <rect id="Rectangle-12" transform="translate(97.572052, 8.000000) rotate(45.000000) translate(-97.572052, -8.000000) " x="95.371179" y="-0.761904762" width="4.40174672" height="17.5238095"></rect>
                    <rect id="Rectangle-11" transform="translate(106.375546, 8.000000) rotate(-45.000000) translate(-106.375546, -8.000000) " x="104.174672" y="-0.761904762" width="4.40174672" height="17.5238095"></rect>
                    <rect id="Rectangle-14" transform="translate(115.545852, 8.000000) rotate(45.000000) translate(-115.545852, -8.000000) " x="113.344978" y="-0.761904762" width="4.40174672" height="17.5238095"></rect>
                    <rect id="Rectangle-13" transform="translate(124.349345, 8.000000) rotate(-45.000000) translate(-124.349345, -8.000000) " x="122.148472" y="-0.761904762" width="4.40174672" height="17.5238095"></rect>
                    <rect id="Rectangle-16" transform="translate(133.519651, 8.000000) rotate(45.000000) translate(-133.519651, -8.000000) " x="131.318777" y="-0.761904762" width="4.40174672" height="17.5238095"></rect>
                    <rect id="Rectangle-15" transform="translate(142.323144, 8.000000) rotate(-45.000000) translate(-142.323144, -8.000000) " x="140.122271" y="-0.761904762" width="4.40174672" height="17.5238095"></rect>
                    <rect id="Rectangle-18" transform="translate(151.493450, 8.000000) rotate(45.000000) translate(-151.493450, -8.000000) " x="149.292576" y="-0.761904762" width="4.40174672" height="17.5238095"></rect>
                    <rect id="Rectangle-17" transform="translate(160.296943, 8.000000) rotate(-45.000000) translate(-160.296943, -8.000000) " x="158.09607" y="-0.761904762" width="4.40174672" height="17.5238095"></rect>
                </g>
            </g>
        </g>
    </g>
</svg>